<?xml version="1.0" standalone="no"?>
<!DOCTYPE svg PUBLIC "-//W3C//DTD SVG 20010904//EN"
 "http://www.w3.org/TR/2001/REC-SVG-20010904/DTD/svg10.dtd">
<svg version="1.0" xmlns="http://www.w3.org/2000/svg"
 width="220.000000pt" height="220.000000pt" viewBox="0 0 220.000000 220.000000"
 preserveAspectRatio="xMidYMid meet">

<g transform="translate(0.000000,220.000000) scale(0.100000,-0.100000)"
fill="#e4e985" stroke="#e4e985">
<path d="M0 1100 l0 -1100 1100 0 1100 0 0 1100 0 1100 -1100 0 -1100 0 0
-1100z m1680 378 l65 -23 3 -93 c3 -85 1 -92 -16 -92 -14 0 -25 15 -41 60 -31
85 -98 130 -195 130 -52 0 -126 -36 -145 -71 -34 -62 11 -114 188 -219 191
-112 250 -178 251 -278 0 -119 -87 -200 -242 -223 -85 -13 -212 4 -292 39
l-46 21 0 100 c0 99 0 101 23 101 19 0 26 -9 40 -54 10 -29 27 -66 39 -81 33
-42 112 -75 181 -75 107 0 172 48 172 127 0 42 -4 49 -51 92 -28 25 -93 70
-145 99 -133 75 -184 115 -215 167 -69 119 -5 250 143 291 69 20 202 11 283
-18z m-570 -78 c0 -119 -12 -129 -59 -47 -53 93 -51 92 -230 92 l-156 0 -3
-152 -3 -153 115 0 c63 0 126 4 140 10 14 5 34 27 46 50 13 26 27 40 40 40 19
0 20 -7 20 -135 0 -128 -1 -135 -20 -135 -13 0 -26 14 -40 39 -36 72 -57 81
-186 81 l-114 0 0 -158 c0 -111 4 -163 13 -175 6 -9 39 -22 72 -29 42 -10 61
-19 63 -31 3 -16 -13 -17 -207 -17 -204 0 -211 1 -211 20 0 16 9 21 42 26 23
4 52 17 65 30 23 23 23 23 23 326 0 348 2 338 -85 364 -33 9 -55 21 -55 30 0
11 52 14 318 17 174 1 338 3 365 5 l47 2 0 -100z"/>
</g>
</svg>
